<svg xmlns="http://www.w3.org/2000/svg" width="372.533" height="357.864" viewBox="0 0 372.533 357.864">
  <path id="Vector_2009" data-name="Vector 2009" d="M4.188,162.472c-8.255-7.379-9.906-33.809,49.528-80.5,22.594-17.749,30.392-29.49,28.779-59.7C81.222-1.562,156.92-22.541,245.8,50.445c35.919,29.74,47.755,102.77-9.077,143.334C138.136,264.146,75.132,287.915,43.006,242.3c-13.029-18.5-1.2-39.444-11.378-60.374C28.5,175.5,16.51,173.488,4.188,162.472Z" transform="translate(48.242 46.169)" fill="none" stroke="#fafafa" stroke-width="1"/>
  <path id="Vector_2013" data-name="Vector 2013" d="M3.812,147.583c-7.515-6.7-9.018-30.711,45.089-73.122C69.471,58.339,76.57,47.674,75.1,20.229c-1.158-21.648,67.756-40.7,148.673,25.593,32.7,27.014,43.475,93.352-8.264,130.2C125.757,239.941,68.4,261.531,39.152,220.1c-11.861-16.8-1.1-35.83-10.358-54.842-2.843-5.836-13.763-7.664-24.982-17.671Z" transform="translate(60.42 58.758)" fill="none" stroke="#fafafa" stroke-width="1"/>
  <path id="Vector_2014" data-name="Vector 2014" d="M3.232,125.191c-6.37-5.686-7.644-26.052,38.221-62.028,17.436-13.676,23.454-22.723,22.209-46C62.681-1.2,121.1-17.369,189.69,38.87c27.719,22.916,36.853,79.188-7.005,110.445-76.083,54.222-124.7,72.536-149.5,37.387-10.055-14.255-.93-30.394-8.781-46.521-2.41-4.951-11.667-6.5-21.176-14.99Z" transform="translate(79.56 77.066)" fill="none" stroke="#fafafa" stroke-width="1"/>
  <path id="Vector_2010" data-name="Vector 2010" d="M4.691,180.242c-9.248-8.186-11.1-37.507,55.486-89.3,25.312-19.69,34.048-32.715,32.241-66.233C90.993-1.733,175.8-25.006,275.372,55.962c40.24,32.992,53.5,114.01-10.169,159.011C154.753,293.037,84.17,319.406,48.18,268.8c-14.6-20.523-1.35-43.759-12.747-66.977-3.5-7.128-16.936-9.361-30.742-21.581Z" transform="translate(31.638 31.64)" fill="none" stroke="#fafafa" stroke-width="1"/>
  <path id="Vector_2011" data-name="Vector 2011" d="M5.211,201.821c-10.272-9.166-12.326-42,61.63-99.994,28.115-22.048,37.818-36.632,35.812-74.163-1.583-29.6,92.612-55.664,203.213,35,44.7,36.942,59.424,127.659-11.3,178.047-122.68,87.41-201.079,116.936-241.056,60.272-16.213-22.98-1.5-49-14.158-75C35.47,218,20.545,215.5,5.211,201.821Z" transform="translate(15.033 13.997)" fill="none" stroke="rgba(250,250,250,0.9)" stroke-width="1"/>
  <path id="Vector_2012" data-name="Vector 2012" d="M5.636,218.322C-5.474,208.406-7.7,172.89,72.293,110.152,102.7,86.3,113.2,70.525,111.026,29.925,109.314-2.1,211.193-30.289,330.816,67.785c48.342,39.963,64.272,138.1-12.217,192.6-132.687,94.557-217.481,126.5-260.719,65.2-17.535-24.859-1.621-53-15.313-81.128-4.2-8.634-20.346-11.338-36.931-26.14Z" transform="translate(0.504 0.506)" fill="none" stroke="rgba(250,250,250,0.7)" stroke-width="1"/>
</svg>
